<svg fill="none" height="72" viewBox="0 0 541 72" width="541" xmlns="http://www.w3.org/2000/svg"><path d="m37.6127 71.8971c-3.4374.6181-6.7521-1.6073-7.3659-5.069l-9.3302-51.3072c-.6139-3.4617 1.5959-6.79979 5.0334-7.41795 3.4374-.61816 6.7521 1.60722 7.3659 5.06895l9.3302 51.3072c.6139 3.4617-1.7187 6.7998-5.0334 7.418z" fill="#ff5543"/><path d="m13.1823 63.1192c-2.2098.3709-4.41957-.3709-6.01552-2.1017-2.20979-2.7199-1.96426-6.6762.73659-8.9015l39.40783-33.7516c2.7009-2.2253 6.6294-1.9781 8.8392.7418s1.9642 6.6762-.7366 8.9015l-39.2851 33.7516c-.8594.7417-1.9643 1.2363-2.9464 1.3599z" fill="#a112ff"/><path d="m57.2553 54.9595c-1.1049.2472-2.2098.1236-3.1919-.2473l-48.86083-17.4321c-3.31468-1.2363-5.033406-4.8216-3.80575-8.1597 1.22766-3.3381 4.78787-5.0689 8.10255-3.8326l48.73803 17.4321c3.3147 1.2363 5.0334 4.8217 3.8058 8.1597-.7366 2.2254-2.7009 3.709-4.7879 4.0799z" fill="#00cbec"/><g fill="#000"><path d="m99.5 48.5405c0-1.2612-.5-2.2702-1.375-3.027-.875-.7567-2-1.5135-3.375-2.1441-1.375-.6307-2.875-1.2613-4.5-2.0181-1.625-.6306-3.125-1.5135-4.5-2.5225s-2.5-2.2703-3.375-3.7838-1.375-3.4054-1.375-5.6756c0-2.0181.375-3.7838 1-5.1712.625-1.5135 1.625-2.6487 2.875-3.6577s2.625-1.6396 4.375-2.1441c1.625-.5045 3.5-.7568 5.625-.7568 2.375 0 4.625.2523 6.625.6307 2 .3783 3.875 1.009 5.125 1.7657l-2.5 6.6847c-.875-.5045-2.125-1.009-3.875-1.3874-1.75-.5045-3.5-.6306-5.5-.6306-1.875 0-3.25.3784-4.25 1.1351-1 .7568-1.5 1.7658-1.5 3.0271 0 1.1351.5 2.1441 1.375 2.9009.875.7567 2 1.5135 3.375 2.1441s2.875 1.3874 4.5 2.018c1.625.7568 3.125 1.5135 4.5 2.5225 1.375 1.0091 2.5 2.2703 3.375 3.6577.875 1.5135 1.375 3.2793 1.375 5.4234 0 2.1442-.375 4.0361-1.125 5.6757s-1.75 2.9009-3 3.9099-2.875 1.8919-4.75 2.3964-3.875.7568-6.125.7568c-2.875 0-5.5-.2523-7.625-.8829-2.25-.5045-3.875-1.1352-4.875-1.6397l2.5-6.8108c.375.2523 1 .5045 1.625.7568.625.2522 1.5.5045 2.25.7567.875.2523 1.75.3784 2.75.6307 1 .1261 1.875.2522 2.875.2522 2.375 0 4.125-.3784 5.375-1.2612 1.5-.7568 2.125-1.8919 2.125-3.5316z"/><path d="m110.875 44.8829c0-4.9189 1.25-8.8288 3.625-11.4775 2.375-2.6486 5.75-4.036 10.125-4.036 2.375 0 4.375.3783 6 1.1351 1.75.7568 3.125 1.7658 4.25 3.1532 1.125 1.3873 2 3.027 2.5 4.9189s.875 4.036.875 6.3063c0 4.9189-1.25 8.8288-3.625 11.4775-2.375 2.6486-5.75 4.036-10.125 4.036-2.375 0-4.375-.3784-6-1.1351-1.75-.7568-3.125-1.7658-4.25-3.1532s-2-3.027-2.5-4.9189c-.625-1.8919-.875-4.036-.875-6.3063zm7.75 0c0 1.2612.125 2.5225.375 3.5315.25 1.1351.625 2.018 1 2.9009.5.8829 1.125 1.5135 1.875 1.8919.75.5045 1.625.6306 2.75.6306 2 0 3.5-.7567 4.375-2.1441 1-1.3874 1.5-3.7838 1.5-6.8108 0-2.6487-.5-4.9189-1.375-6.5586-.875-1.6396-2.375-2.5225-4.5-2.5225-1.875 0-3.375.7568-4.375 2.1441-1.125 1.3874-1.625 3.6577-1.625 6.937z"/><path d="m149.625 30.2522v16.6487c0 2.3964.25 4.1622.875 5.1712.5 1.009 1.625 1.6396 3.25 1.6396 1.375 0 2.625-.3784 3.625-1.2613 1-.8828 1.625-1.8919 2.125-3.1531v-18.9189h7.5v20.4324c0 1.6396.125 3.1532.25 4.6667s.375 2.9009.75 4.1621h-5.75l-1.375-4.2883h-.25c-.875 1.5136-2.125 2.7748-3.75 3.6577-1.625 1.009-3.5 1.5135-5.625 1.5135-1.5 0-2.75-.2522-4-.6306-1.125-.3784-2.125-1.009-2.875-1.8919s-1.375-2.1442-1.75-3.6577-.625-3.5315-.625-5.9279v-18.1622z"/><path d="m188.875 37.3153c-1.25-.3784-2.25-.6306-3.25-.6306-1.375 0-2.5.3784-3.375 1.1351-.875.7568-1.5 1.6397-1.875 2.7748v18.9189h-7.5v-29.2612h5.875l.875 3.9099h.25c.625-1.3874 1.5-2.5226 2.625-3.4054 1.125-.8829 2.5-1.1352 4-1.1352 1 0 3.125.5045 4.25 1.009z"/><path d="m213.375 57.7477c-1.125.8829-2.625 1.5136-4.25 2.0181s-3.375.6306-5.125.6306c-2.375 0-4.25-.3784-5.875-1.1351-1.625-.7568-2.875-1.7658-3.875-3.1532s-1.75-3.027-2.125-4.9189c-.5-1.8919-.625-4.036-.625-6.3063 0-4.9189 1.125-8.8288 3.375-11.4775 2.25-2.6486 5.375-4.036 9.625-4.036 2.125 0 3.875.1261 5.125.5045s2.5.7567 3.5 1.3874l-1.75 6.1801c-.875-.3783-1.75-.7567-2.625-1.009-.875-.2522-1.875-.3783-3-.3783-2.125 0-3.625.7567-4.75 2.1441s-1.625 3.6577-1.625 6.6847c0 1.2612.125 2.3964.375 3.4054s.625 2.018 1.25 2.7748c.5.7567 1.25 1.3873 2.125 1.8919.875.5045 1.875.6306 3 .6306 1.25 0 2.375-.1261 3.25-.5045s1.625-.7568 2.375-1.2613z"/><path d="m240 56.991c-1.125.8829-2.75 1.7658-4.75 2.3964s-4.125 1.009-6.375 1.009c-4.75 0-8.125-1.3874-10.25-4.1622-2.125-2.7747-3.25-6.5585-3.25-11.3513 0-5.1712 1.25-9.0811 3.625-11.6036s5.875-3.9099 10.25-3.9099c1.5 0 2.875.2522 4.25.6306s2.625 1.009 3.75 1.8919 2 2.1441 2.625 3.6576c.625 1.5136 1 3.4055 1 5.6757 0 .8829 0 1.6397-.125 2.6487-.125.8829-.25 1.8919-.375 2.9009h-17.5c.125 2.5225.75 4.2883 1.875 5.5495 1.125 1.2613 3 1.8919 5.5 1.8919 1.625 0 3-.2522 4.25-.7567s2.25-1.0091 2.875-1.5136zm-10.875-21.5676c-2 0-3.5.6307-4.375 1.7658-1 1.1351-1.5 2.7748-1.75 4.7928h10.75c.125-2.1442-.125-3.7838-1-4.9189-.625-1.009-1.875-1.6397-3.625-1.6397z"/><path d="m270.25 59.5135c0 4.2883-1.125 7.4415-3.375 9.4595s-5.5 3.027-9.625 3.027c-2.75 0-5-.2523-6.625-.6306-1.625-.3784-2.875-.7568-3.625-1.2613l1.625-6.054c.875.3783 1.875.7567 3.125 1.009 1.25.2522 2.625.5045 4.375.5045 2.625 0 4.375-.6307 5.375-1.7658s1.375-2.7748 1.375-4.7928v-1.7658h-.25c-1.375 1.8919-3.75 2.7748-7.25 2.7748-3.75 0-6.5-1.1351-8.375-3.5315s-2.75-6.0541-2.75-10.973c0-5.2973 1.25-9.2072 3.75-11.8558 2.5-2.6487 6.125-4.0361 10.75-4.0361 2.5 0 4.75.1262 6.625.5045 1.875.3784 3.5.7568 4.75 1.2613v28.1261zm-12.75-5.6757c1.5 0 2.625-.3783 3.375-1.009.75-.6306 1.375-1.6396 1.875-3.027v-13.1171c-1.25-.5045-2.75-.7568-4.5-.7568-2 0-3.5.7568-4.5 2.1442-1.125 1.5135-1.625 3.7838-1.625 7.063 0 2.9009.5 5.0451 1.375 6.5586s2.25 2.1441 4 2.1441z"/><path d="m292.125 37.3153c-1.25-.3784-2.25-.6306-3.25-.6306-1.375 0-2.5.3784-3.375 1.1351-.875.7568-1.5 1.6397-1.875 2.7748v18.9189h-7.5v-29.2612h5.875l.875 3.9099h.25c.625-1.3874 1.5-2.5226 2.625-3.4054 1.125-.8829 2.5-1.1352 4-1.1352 1 0 2.125.2523 3.375.6307z"/><path d="m295.75 31.6396c1.5-.7567 2.625-1.009 4.75-1.3873 2.125-.3784 4.375-.6307 6.625-.6307 2 0 3.75.2523 5 .7568s2.375 1.1351 3.25 2.1441c.75.8829 1.375 2.018 1.625 3.2793.375 1.2613.5 2.6487.5 4.1622 0 1.7657 0 3.4054-.125 5.1711-.125 1.7658-.125 3.4054-.25 5.1712 0 1.6396 0 3.2793.125 4.9189.125 1.6397.375 3.0271.875 4.5406h-6.125l-1.25-4.0361c-.75 1.2613-1.875 2.2703-3.25 3.1532s-3.125 1.2612-5.375 1.2612c-1.375 0-2.625-.2522-3.625-.6306-1.125-.3784-2-1.009-2.75-1.7657-.75-.7568-1.375-1.6397-1.75-2.6487s-.625-2.1441-.625-3.5315c0-1.7658.375-3.2793 1.25-4.5406.875-1.2612 1.875-2.2702 3.375-3.027s3.25-1.2613 5.375-1.6396c2.125-.3784 4.375-.3784 7-.2523.25-2.1441.125-3.7838-.5-4.6667-.625-1.009-1.875-1.3873-3.875-1.3873-1.5 0-3.125.1261-4.75.5045-1.625.3783-2.375.5045-3.375 1.009zm8.875 22.0721c1.5 0 2.75-.3784 3.625-1.009s1.5-1.3874 2-2.1441v-3.7838c-1.25-.1261-2.375-.1261-3.5 0s-2.125.2522-2.875.5045c-.75.2522-1.5.6306-2 1.1351s-.75 1.1352-.75 1.8919c0 1.1351.375 1.8919 1 2.5225.5.6307 1.375.8829 2.5.8829z"/><path d="m323.375 30.2523h5.5l.875 3.5315h.25c1-1.5135 2.25-2.5225 3.625-3.2793s3-1.009 5-1.009c3.625 0 6.375 1.1351 8.25 3.5315s2.75 6.0541 2.75 11.2253c0 2.5225-.25 4.7927-.875 6.8108-.625 2.018-1.5 3.7837-2.625 5.1711s-2.5 2.5226-4.125 3.2793c-1.625.7568-3.5 1.1352-5.625 1.1352-1.25 0-2.25-.1262-3-.2523s-1.5-.5045-2.375-.8829v11.982h-7.5v-41.2432zm12.875 5.5495c-1.5 0-2.625.3784-3.5 1.1351-.875.7568-1.5 1.8919-2 3.4054v12.2343c.5.3784 1.125.7567 1.75 1.009.625.2522 1.5.3784 2.5.3784 2.125 0 3.75-.7568 4.875-2.2703s1.625-4.036 1.625-7.6937c0-2.5225-.375-4.5405-1.25-5.9279-.75-1.5135-2.125-2.2703-4-2.2703z"/><path d="m371.5 59.5135v-16.6486c0-2.3964-.375-4.1622-1-5.1712s-1.875-1.6396-3.625-1.6396c-1.25 0-2.5.3783-3.5 1.2612-1.125.8829-1.75 2.018-2.125 3.4054v18.6667h-7.5v-40.8649h7.5v15.009h.25c.875-1.2612 2.125-2.2702 3.375-3.027 1.375-.7567 3.125-1.1351 5.125-1.1351 1.5 0 2.75.2522 3.875.6306s2.125 1.009 2.875 1.8919 1.375 2.1441 1.625 3.6577c.25 1.5135.5 3.4054.5 5.6756v18.2883z"/><path d="m401.185 62v-38.704h9.676c5.979 0 10.522 1.6717 13.629 5.015 3.107 3.304 4.661 8.024 4.661 14.16 0 6.1753-1.554 10.974-4.661 14.396-3.068 3.422-7.532 5.133-13.393 5.133zm4.897-4.012h4.425c4.523 0 7.906-1.357 10.148-4.071 2.281-2.7533 3.422-6.5687 3.422-11.446s-1.141-8.614-3.422-11.21c-2.242-2.6353-5.625-3.953-10.148-3.953h-4.425zm42.081 4.72c-2.321 0-4.504-.59-6.549-1.77-2.006-1.18-3.639-2.891-4.897-5.133-1.22-2.242-1.829-4.9363-1.829-8.083 0-3.2253.609-5.959 1.829-8.201 1.258-2.242 2.891-3.953 4.897-5.133 2.045-1.18 4.228-1.77 6.549-1.77 2.36 0 4.543.59 6.549 1.77s3.618 2.891 4.838 5.133c1.258 2.242 1.888 4.9757 1.888 8.201 0 3.1467-.63 5.841-1.888 8.083-1.22 2.242-2.832 3.953-4.838 5.133s-4.189 1.77-6.549 1.77zm0-4.012c2.478 0 4.464-1.003 5.959-3.009 1.534-2.0453 2.301-4.7003 2.301-7.965 0-3.304-.767-5.9787-2.301-8.024-1.495-2.0453-3.481-3.068-5.959-3.068-2.439 0-4.425 1.0227-5.959 3.068s-2.301 4.72-2.301 8.024c0 3.2647.767 5.9197 2.301 7.965 1.534 2.006 3.52 3.009 5.959 3.009zm32.154 4.012c-2.517 0-4.798-.59-6.844-1.77-2.045-1.18-3.658-2.891-4.838-5.133s-1.77-4.9363-1.77-8.083c0-3.2253.63-5.959 1.888-8.201 1.298-2.242 2.99-3.953 5.074-5.133 2.124-1.18 4.406-1.77 6.844-1.77 1.888 0 3.501.3343 4.838 1.003 1.377.6687 2.557 1.4553 3.54 2.36l-2.478 3.186c-.826-.7473-1.711-1.357-2.655-1.829-.904-.472-1.927-.708-3.068-.708-1.73 0-3.284.472-4.661 1.416-1.337.9047-2.399 2.2027-3.186 3.894-.747 1.652-1.121 3.5793-1.121 5.782 0 3.2647.807 5.9197 2.419 7.965 1.652 2.006 3.796 3.009 6.431 3.009 1.338 0 2.577-.2753 3.717-.826 1.141-.59 2.144-1.2783 3.009-2.065l2.124 3.245c-1.298 1.1407-2.733 2.0453-4.307 2.714-1.573.6293-3.225.944-4.956.944zm23.073 0c-2.046 0-3.993-.3737-5.841-1.121-1.849-.7867-3.462-1.7307-4.838-2.832l2.419-3.245c1.258.9833 2.556 1.8093 3.894 2.478 1.337.6293 2.851.944 4.543.944 1.888 0 3.304-.4327 4.248-1.298.944-.9047 1.416-1.9667 1.416-3.186 0-.9833-.335-1.8093-1.003-2.478-.63-.6687-1.456-1.2193-2.478-1.652-.984-.472-2.006-.9047-3.068-1.298-1.338-.5113-2.655-1.0817-3.953-1.711-1.298-.6687-2.36-1.5143-3.186-2.537-.826-1.062-1.239-2.3993-1.239-4.012 0-2.3207.865-4.248 2.596-5.782 1.77-1.5733 4.208-2.36 7.316-2.36 1.77 0 3.422.3147 4.956.944s2.851 1.3963 3.953 2.301l-2.36 3.068c-.984-.7473-2.006-1.357-3.068-1.829s-2.223-.708-3.481-.708c-1.81 0-3.147.413-4.012 1.239-.826.826-1.239 1.7897-1.239 2.891 0 .9047.295 1.652.885 2.242.59.5507 1.357 1.0423 2.301 1.475.944.3933 1.947.8063 3.009 1.239 1.376.5113 2.733 1.1013 4.071 1.77 1.337.6293 2.438 1.4947 3.304 2.596.904 1.062 1.357 2.4977 1.357 4.307 0 1.534-.413 2.95-1.239 4.248-.787 1.298-1.967 2.3403-3.54 3.127-1.534.7867-3.442 1.18-5.723 1.18z"/></g></svg>