<?xml version="1.0" encoding="UTF-8"?><svg id="Layer_2" xmlns="http://www.w3.org/2000/svg" viewBox="0 0 1190 158.67"><defs><style>.cls-1{fill:#ff5543;}.cls-2{fill:#fcfcfc;}</style></defs><g id="Flattened"><g id="primary-dark-mode"><path class="cls-1" d="M61.63,42.25l18.54,4.94L67.55,0l-21.38,5.75,7.62,28.62c1.02,3.84,4.03,6.86,7.85,7.88Z"/><polygon class="cls-1" points="45.07 123.62 51.01 117.69 68.17 100.56 69.79 98.95 70.74 98.01 71.08 99.3 71.67 101.5 75.93 117.4 80.09 132.96 85.45 153 106.84 147.25 101.46 127.03 101.25 126.33 85.53 67.4 26.55 51.68 25.81 51.48 25.38 51.37 25.38 51.35 5.68 46.11 0 67.62 19.97 72.95 31 75.9 51.44 81.37 53.65 81.96 54.94 82.3 53.99 83.25 52.38 84.87 40.69 96.57 29.31 107.96 14.67 122.61 30.3 138.37 45.07 123.62"/><path class="cls-1" d="M105.7,72.74l4.97,18.62c1.02,3.84,4.04,6.86,7.86,7.87l28.79,7.65,5.68-21.5-47.3-12.64Z"/><path class="cls-1" d="M122.7,14.63l-18.41,18.37c-2.03,2.03-3.19,4.73-3.26,7.61l-.29,11.66,10.37.38c.13,0,.27,0,.4,0,2.95,0,5.72-1.15,7.81-3.24l19-19.02-15.62-15.76Z"/><path class="cls-2" d="M261.18,68.36c-6.54-2.75-14.72-5.05-24.54-6.89-6.7-1.4-11.72-2.64-15.07-3.72-3.35-1.08-5.83-2.46-7.45-4.13-1.62-1.67-2.43-3.97-2.43-6.88,0-3.46.94-6.13,2.83-8.02s4.46-3.21,7.7-3.97c3.24-.75,7.29-1.13,12.15-1.13,5.83,0,11.64.7,17.42,2.11,5.78,1.41,12.01,3.62,18.71,6.64l3.56-20.09c-6.05-2.92-12.39-5.08-19.04-6.48-6.64-1.4-13.53-2.11-20.65-2.11-8.53,0-16.31,1.32-23.33,3.97-7.02,2.65-12.64,6.48-16.85,11.5-4.21,5.02-6.32,11.15-6.32,18.39,0,6.37,1.62,11.72,4.86,16.04,3.24,4.32,7.99,7.8,14.26,10.45,6.26,2.65,14.26,4.83,23.98,6.56,6.91,1.41,12.09,2.67,15.55,3.81,3.46,1.13,6.16,2.7,8.1,4.7,1.94,2,2.92,4.89,2.92,8.67,0,3.46-1.11,6.18-3.32,8.18-2.21,2-5.13,3.35-8.75,4.05-3.62.7-7.97,1.05-13.04,1.05-7.02,0-14.72-.92-23.08-2.75-8.37-1.83-15.58-4.32-21.63-7.45l-2.11,19.93c5.83,3.35,12.82,5.89,20.98,7.61,8.15,1.73,16.87,2.59,26.16,2.59s16.95-1.32,24.3-3.97c7.34-2.64,13.2-6.53,17.58-11.66,4.37-5.13,6.56-11.37,6.56-18.71,0-6.8-1.7-12.53-5.1-17.17-3.4-4.64-8.37-8.34-14.9-11.1Z"/><path class="cls-2" d="M362.03,44.22c-7.45-3.94-15.77-5.91-24.95-5.91s-17.77,1.97-25.11,5.91c-7.35,3.94-13.1,9.45-17.25,16.52-4.16,7.08-6.24,15.04-6.24,23.9s2.05,16.63,6.16,23.65c4.1,7.02,9.85,12.56,17.25,16.61,7.4,4.05,15.79,6.08,25.19,6.08s17.5-2.03,24.95-6.08c7.45-4.05,13.26-9.61,17.42-16.69,4.16-7.07,6.24-14.98,6.24-23.73s-2.08-16.79-6.24-23.81c-4.16-7.02-9.96-12.5-17.42-16.44ZM360.57,98.73c-2.27,4.11-5.46,7.32-9.56,9.64-4.11,2.32-8.7,3.48-13.77,3.48s-9.99-1.16-14.09-3.48c-4.11-2.32-7.35-5.56-9.72-9.72-2.38-4.16-3.56-8.94-3.56-14.34s1.19-10.1,3.56-14.09c2.38-3.99,5.62-7.13,9.72-9.4,4.1-2.27,8.75-3.4,13.93-3.4s9.83,1.13,13.93,3.4c4.1,2.27,7.29,5.46,9.56,9.56,2.27,4.11,3.4,8.86,3.4,14.26s-1.13,9.99-3.4,14.09Z"/><path class="cls-2" d="M461.33,92.96c-.41,1.08-.86,2.14-1.38,3.18-2.32,4.64-5.54,8.32-9.64,11.02-4.11,2.7-8.69,4.05-13.77,4.05-6.7,0-11.69-1.81-14.98-5.43-3.3-3.62-4.94-8.77-4.94-15.47v-50.22h-21.54v53.46c0,7.56,1.51,14.15,4.54,19.76,3.02,5.62,7.23,9.94,12.64,12.96,5.4,3.02,11.61,4.54,18.63,4.54,10.58,0,18.96-2.7,25.11-8.1,2.02-1.77,3.78-3.71,5.35-5.81v12.13h21.54V40.09h-21.54v52.87Z"/><path class="cls-2" d="M542.49,38.47c-10.15,0-17.77,3.35-22.84,10.04-1.2,1.59-2.28,3.36-3.24,5.31v-13.73h-21.55v88.94h21.55v-36.61c0-9.93,2.13-17.9,6.4-23.89,4.26-5.99,10.07-8.99,17.41-8.99h5.35c1.08.11,2.05.16,2.92.16h2.59l2.43-20.09c-3.78-.75-7.45-1.13-11.02-1.13Z"/><path class="cls-2" d="M588.58,60.58c4.16-2.21,8.88-3.32,14.18-3.32,4.32,0,8.37.65,12.15,1.94,3.78,1.3,7.61,3.4,11.5,6.32l8.91-16.04c-5.29-3.89-10.69-6.72-16.2-8.5-5.51-1.78-11.56-2.67-18.14-2.67-8.75,0-16.74,1.92-23.98,5.75-7.24,3.83-12.96,9.29-17.17,16.36-4.21,7.08-6.32,15.15-6.32,24.22s2.05,17.09,6.16,24.06c4.1,6.97,9.8,12.37,17.09,16.2,7.29,3.83,15.31,5.75,24.06,5.75,6.69,0,12.66-.84,17.9-2.51,5.24-1.67,10.77-4.46,16.6-8.34l-8.59-15.71c-3.89,2.59-7.8,4.56-11.75,5.91-3.94,1.35-7.97,2.03-12.07,2.03-5.29,0-10.04-1.08-14.26-3.24-4.21-2.16-7.53-5.32-9.96-9.48-2.43-4.16-3.65-9.04-3.65-14.66s1.21-10.61,3.65-14.66c2.43-4.05,5.72-7.18,9.88-9.4Z"/><path class="cls-2" d="M704.98,43.57c-6.59-3.4-13.83-5.1-21.71-5.1-9.4,0-17.69,1.97-24.87,5.91-7.18,3.94-12.72,9.42-16.61,16.44-3.89,7.02-5.83,14.96-5.83,23.81s2.05,16.5,6.16,23.57c4.1,7.08,9.88,12.61,17.33,16.61,7.45,4,15.82,5.99,25.11,5.99,6.48,0,12.26-.68,17.33-2.03,5.08-1.35,9.93-3.59,14.58-6.72l-5.51-17.66c-3.46,2.49-7.45,4.4-11.99,5.75-4.54,1.35-8.97,2.03-13.28,2.03-5.83,0-10.85-1.05-15.07-3.16-4.21-2.11-7.45-5.21-9.72-9.32-1.24-2.24-2.13-4.79-2.69-7.61h65.22c.75-2.16,1.38-4.46,1.86-6.89.49-2.43.73-4.99.73-7.69,0-7.34-1.86-13.99-5.59-19.93-3.73-5.94-8.88-10.61-15.47-14.01ZM660.51,69.9c2-4.1,4.91-7.26,8.75-9.48,3.83-2.21,8.4-3.32,13.69-3.32,4.75,0,8.85.95,12.31,2.83,3.46,1.89,5.99,4.78,7.61,8.67.95,2.27,1.5,4.87,1.67,7.78h-46.22c.5-2.33,1.22-4.5,2.19-6.48Z"/><path class="cls-2" d="M807.85,52.24c-3.56-4.64-8.05-8.12-13.45-10.45-5.4-2.32-11.77-3.48-19.12-3.48-7.99,0-15.15,1.89-21.46,5.67-6.32,3.78-11.29,9.02-14.9,15.71-3.62,6.7-5.43,14.2-5.43,22.52s1.81,15.37,5.43,21.79c3.62,6.43,8.64,11.5,15.07,15.23,6.42,3.73,13.63,5.59,21.63,5.59,7.13,0,13.37-1.13,18.71-3.4,5.35-2.27,9.75-5.72,13.2-10.37v4.21c0,7.99-2.57,14.31-7.7,18.95-5.13,4.64-12.23,6.97-21.3,6.97-5.94,0-11.72-.89-17.33-2.67-5.62-1.78-10.64-4.24-15.07-7.37l-8.42,15.23c5.83,3.99,12.39,7.05,19.68,9.15,7.29,2.11,15.15,3.16,23.57,3.16,15.12,0,26.95-4.05,35.48-12.15,8.53-8.1,12.8-19.38,12.8-33.86V40.09h-21.38v12.15ZM804.2,95.9c-2.32,3.94-5.48,6.97-9.48,9.07-4,2.11-8.64,3.16-13.93,3.16-4.86,0-9.26-1.11-13.2-3.32-3.94-2.21-7.05-5.32-9.31-9.32-2.27-3.99-3.4-8.42-3.4-13.28s1.13-9.64,3.4-13.69,5.37-7.21,9.31-9.48c3.94-2.27,8.34-3.4,13.2-3.4,5.29,0,9.94,1.05,13.93,3.16,3.99,2.11,7.15,5.16,9.48,9.15,2.32,4,3.48,8.64,3.48,13.93s-1.16,10.07-3.48,14.01Z"/><path class="cls-2" d="M866.33,48.51c-1.2,1.59-2.28,3.36-3.24,5.31v-13.73h-21.55v88.94h21.55v-36.61c0-9.93,2.13-17.9,6.4-23.89,4.26-5.99,10.07-8.99,17.41-8.99h5.35c1.08.11,2.05.16,2.92.16h2.59l2.43-20.09c-3.78-.75-7.45-1.13-11.02-1.13-10.15,0-17.77,3.35-22.84,10.04Z"/><path class="cls-2" d="M973.65,48.11c-6.97-6.53-17.52-9.8-31.67-9.8-10.8,0-21.66,1.78-32.56,5.35l2.59,18.95c3.99-1.73,8.37-3.05,13.12-3.97,4.75-.92,9.61-1.38,14.58-1.38,7.56,0,13.26,1.46,17.09,4.37,3.83,2.92,5.75,7.24,5.75,12.96v.68c-3.52-.31-7.35-.6-11.5-.85-5.4-.32-10.69-.49-15.88-.49-11.66,0-20.31,2.65-25.92,7.94-5.62,5.29-8.42,12.1-8.42,20.41,0,5.51,1.24,10.42,3.73,14.74,2.48,4.32,6.08,7.7,10.77,10.12,4.7,2.43,10.12,3.65,16.28,3.65s11.45-.89,16.2-2.67c4.75-1.78,8.59-4.1,11.5-6.97,1.24-1.22,2.31-2.46,3.24-3.72v11.58h21.55v-52.97c0-12.09-3.48-21.41-10.45-27.95ZM952.19,109.34c-3.56,2-8.05,3-13.45,3s-9.96-.94-13.04-2.84c-3.08-1.89-4.62-4.67-4.62-8.34,0-3.89,1.56-6.86,4.7-8.91,3.13-2.05,8.42-3.08,15.88-3.08,4.1,0,7.83.08,11.18.24,3.29.16,6.52.45,9.71.87-.08,4.07-.9,7.72-2.5,10.95-1.67,3.4-4.29,6.1-7.86,8.1Z"/><path class="cls-2" d="M1069.88,44.3c-6.64-3.99-13.91-5.99-21.79-5.99-6.16,0-11.88,1.05-17.17,3.16-5.29,2.11-9.88,5.16-13.77,9.15v-10.53h-21.55v116.8h21.55v-38.07c2.48,2.7,5.37,4.92,8.67,6.64,3.29,1.73,6.75,3.08,10.37,4.05,3.62.97,7.53,1.46,11.75,1.46,8.1,0,15.44-1.92,22.03-5.75,6.59-3.83,11.8-9.26,15.63-16.28,3.83-7.02,5.75-15.07,5.75-24.14s-1.92-16.82-5.75-23.9c-3.83-7.07-9.07-12.61-15.71-16.61ZM1066.64,98.65c-2.21,4.05-5.29,7.21-9.23,9.48-3.94,2.27-8.4,3.4-13.37,3.4-5.29,0-9.99-1.08-14.09-3.24-4.11-2.16-7.26-5.29-9.48-9.4-2.21-4.1-3.32-8.85-3.32-14.26s1.13-10.26,3.4-14.26c2.27-3.99,5.43-7.13,9.48-9.4s8.72-3.4,14.01-3.4c4.97,0,9.42,1.13,13.37,3.4,3.94,2.27,7.02,5.48,9.23,9.64,2.21,4.16,3.32,8.88,3.32,14.17s-1.11,9.8-3.32,13.85Z"/><path class="cls-2" d="M1185.46,55.8c-3.02-5.61-7.24-9.93-12.64-12.96-5.4-3.02-11.61-4.54-18.63-4.54-10.59,0-18.95,2.7-25.11,8.1-2.02,1.77-3.78,3.71-5.35,5.81V9.47h-21.55v119.56h21.55v-52.88c.41-1.08.86-2.14,1.38-3.18,2.32-4.64,5.53-8.32,9.64-11.02,4.1-2.7,8.69-4.05,13.77-4.05,6.7,0,11.69,1.81,14.98,5.43,3.29,3.62,4.94,8.78,4.94,15.47v50.22h21.55v-53.46c0-7.56-1.51-14.15-4.54-19.76Z"/></g></g></svg>