<svg width="601" height="401" viewBox="0 0 601 401" fill="none" xmlns="http://www.w3.org/2000/svg">
<path d="M313.989 2.46859L3.06645 210.918M328.966 12.4355L18.044 220.886M343.944 22.4027L33.0219 230.853M359.051 32.4557L48.1287 240.906M374.028 42.4226L63.1063 250.873M389.007 52.3898L78.0842 260.84M403.984 62.357L93.0621 270.807M418.962 72.3239L108.04 280.774M434.069 82.3769L123.146 290.827M449.046 92.3444L138.125 300.794M464.024 102.311L153.102 310.761M479.002 112.278L168.08 320.728M494.109 122.331L183.187 330.781M509.087 132.299L198.164 340.748M524.065 142.265L213.142 350.716M539.042 152.233L228.12 360.682M554.02 162.199L243.097 370.65M569.127 172.253L258.205 380.703M584.103 182.219L273.182 390.669M599.083 192.187L288.162 400.637M1 192.137L316.048 401.789M16.0061 182.077L331.054 391.729M31.0113 172.017L346.06 381.669M46.0164 161.957L361.065 371.609M61.0215 151.897L376.07 361.549M76.0267 141.838L391.075 351.49M91.0319 131.778L406.08 341.429M106.037 121.718L421.085 331.37M121.042 111.658L436.091 321.31M136.047 101.598L451.096 311.25M151.052 91.5381L466.101 301.19M166.058 81.4786L481.106 291.131M181.062 71.4187L496.111 281.071M196.068 61.359L511.116 271.011M211.073 51.2991L526.121 260.951M226.078 41.2393L541.127 250.891M241.083 31.1795L556.132 240.832M256.088 21.1197L571.137 230.771M271.093 11.0599L586.142 220.712M286.099 1L601.148 210.652" stroke="url(#paint0_radial_32_1824)" stroke-opacity="0.5"/>
<path d="M311.287 192.857L166.861 96.7467C164.274 95.0249 160.083 95.0321 157.502 96.7628L64.3174 159.236C61.736 160.967 61.7408 163.765 64.3281 165.487L208.755 261.597C211.342 263.319 215.532 263.312 218.114 261.581L311.298 199.108C313.88 197.377 313.875 194.578 311.287 192.857Z" fill="white" fill-opacity="0.17" stroke="#DBE2F0" stroke-width="1.00035"/>
<path d="M430.838 115.425L284.917 18.3209C282.33 16.5991 278.14 16.6063 275.558 18.337L179.98 82.4151C177.399 84.1458 177.403 86.9445 179.991 88.6663L325.911 185.771C328.499 187.492 332.689 187.485 335.27 185.754L430.849 121.676C433.43 119.946 433.425 117.147 430.838 115.425Z" fill="white" fill-opacity="0.17" stroke="#DBE2F0" stroke-width="1.00035"/>
<path d="M528.094 264.055L401.138 179.571C398.55 177.85 394.36 177.857 391.779 179.587L291.29 246.958C288.708 248.689 288.713 251.487 291.3 253.209L418.256 337.693C420.844 339.415 425.034 339.408 427.615 337.677L528.105 270.307C530.686 268.576 530.681 265.777 528.094 264.055Z" fill="white" fill-opacity="0.17" stroke="#DBE2F0" stroke-width="1.00035"/>
<g filter="url(#filter0_dd_32_1824)">
<path d="M497.208 265.504L415.567 211.175C412.979 209.453 408.789 209.46 406.208 211.191L340.452 255.275C337.871 257.005 337.876 259.804 340.463 261.526L422.105 315.855C424.692 317.577 428.882 317.57 431.463 315.839L497.219 271.755C499.8 270.024 499.795 267.226 497.208 265.504Z" fill="url(#paint1_linear_32_1824)" stroke="#DBE2F0" stroke-width="1.00035"/>
<path d="M455.708 248.475L412.149 219.488C410.552 218.425 407.965 218.429 406.371 219.498C404.777 220.567 404.78 222.295 406.377 223.358L449.936 252.344C451.534 253.407 454.121 253.403 455.715 252.334C457.309 251.266 457.306 249.538 455.708 248.475Z" fill="#9993DD"/>
<path d="M438.392 250.533L421.717 239.436C420.12 238.373 417.533 238.378 415.939 239.446C414.345 240.515 414.348 242.243 415.945 243.306L432.62 254.402C434.218 255.466 436.805 255.461 438.399 254.393C439.993 253.324 439.99 251.596 438.392 250.533Z" fill="#BBD1FD"/>
<path d="M441.817 265.512L412.211 245.81C410.613 244.747 408.026 244.751 406.432 245.82C404.838 246.889 404.841 248.617 406.439 249.68L436.045 269.382C437.643 270.445 440.23 270.44 441.824 269.372C443.418 268.303 443.415 266.575 441.817 265.512Z" fill="#9993DD"/>
<path d="M473.784 274.085L446.9 256.194C445.302 255.131 442.715 255.136 441.121 256.204L441.121 256.204C439.527 257.273 439.53 259.001 441.128 260.064L468.012 277.954C469.609 279.017 472.196 279.013 473.79 277.944C475.384 276.876 475.381 275.148 473.784 274.085Z" fill="#BBD1FD"/>
<path d="M403.703 240.148L392.133 232.449C390.535 231.386 387.948 231.39 386.354 232.459C384.76 233.527 384.763 235.255 386.361 236.318L397.931 244.018C399.529 245.081 402.116 245.077 403.71 244.008C405.303 242.94 405.3 241.211 403.703 240.148Z" fill="#9993DD"/>
<path d="M378.275 259.034L366.704 251.334C365.107 250.271 362.52 250.276 360.926 251.344L360.926 251.344C359.332 252.413 359.335 254.141 360.932 255.204L372.503 262.904C374.1 263.967 376.687 263.962 378.281 262.894C379.875 261.825 379.872 260.097 378.275 259.034Z" fill="#BBD1FD"/>
<path d="M399.129 273.651L387.558 265.951C385.961 264.888 383.374 264.893 381.78 265.961L381.78 265.961C380.186 267.03 380.189 268.758 381.786 269.821L393.357 277.52C394.954 278.584 397.541 278.579 399.135 277.511C400.729 276.442 400.726 274.714 399.129 273.651Z" fill="#BBD1FD"/>
<path d="M413.21 233.775L401.64 226.076C400.042 225.013 397.455 225.017 395.861 226.086C394.268 227.154 394.271 228.882 395.868 229.945L407.438 237.645C409.036 238.708 411.623 238.704 413.217 237.635C414.811 236.566 414.808 234.838 413.21 233.775Z" fill="#BBD1FD"/>
</g>
<g filter="url(#filter1_dd_32_1824)">
<path d="M287.395 191.241L187.733 124.92C185.145 123.198 180.955 123.205 178.374 124.936L127.822 158.827C125.241 160.558 125.246 163.356 127.833 165.078L227.496 231.399C230.083 233.121 234.273 233.114 236.854 231.383L287.406 197.492C289.987 195.762 289.983 192.963 287.395 191.241Z" fill="url(#paint2_linear_32_1824)" stroke="#DBE2F0" stroke-width="1.00035"/>
<path d="M165.591 150.391L164.007 149.338C162.512 148.342 160.089 148.346 158.596 149.347L158.596 149.347C157.104 150.348 157.107 151.966 158.603 152.961L160.186 154.015C161.682 155.01 164.105 155.006 165.597 154.006L165.597 154.006C167.09 153.005 167.087 151.387 165.591 150.391Z" fill="#BBD1FD"/>
<path d="M217.638 185.026L172.622 155.07C171.126 154.075 168.703 154.079 167.211 155.079L167.211 155.079C165.718 156.08 165.721 157.698 167.217 158.694L212.233 188.65C213.729 189.645 216.152 189.641 217.644 188.641C219.137 187.64 219.134 186.022 217.638 185.026Z" fill="#BBD1FD"/>
<path d="M214.072 154.964L207.951 150.891C206.455 149.895 204.033 149.9 202.54 150.9L202.54 150.9C201.048 151.901 201.051 153.519 202.547 154.514L208.667 158.587C210.163 159.583 212.586 159.579 214.078 158.578L214.078 158.578C215.571 157.577 215.568 155.959 214.072 154.964Z" fill="#BBD1FD"/>
<path d="M222.14 160.333L228.496 164.562C229.992 165.557 229.994 167.175 228.502 168.176C227.009 169.177 224.587 169.181 223.091 168.185L216.736 163.956C215.24 162.961 215.237 161.342 216.729 160.342C218.222 159.341 220.644 159.337 222.14 160.333Z" fill="#BBD1FD"/>
<path d="M235.984 181.437L199.05 156.859C197.554 155.864 195.131 155.868 193.639 156.868L193.639 156.868C192.146 157.869 192.149 159.487 193.645 160.483L230.579 185.061C232.075 186.056 234.498 186.052 235.99 185.052C237.483 184.051 237.48 182.433 235.984 181.437Z" fill="#9993DD"/>
<path d="M271.762 193.354L238.086 170.944C236.59 169.949 234.167 169.953 232.675 170.953C231.182 171.954 231.185 173.572 232.681 174.568L266.357 196.978C267.853 197.973 270.276 197.969 271.768 196.969C273.261 195.968 273.258 194.35 271.762 193.354Z" fill="#BBD1FD"/>
<path d="M190.374 151.086L175.022 140.87C173.527 139.875 171.104 139.879 169.611 140.88L169.611 140.88C168.119 141.88 168.122 143.498 169.618 144.494L184.969 154.71C186.465 155.705 188.887 155.701 190.38 154.7C191.872 153.7 191.87 152.081 190.374 151.086Z" fill="#9993DD"/>
<path d="M154.987 163.489L151.094 160.899C149.598 159.903 147.176 159.907 145.683 160.908L145.683 160.908C144.191 161.909 144.193 163.527 145.689 164.522L149.583 167.113C151.079 168.108 153.501 168.104 154.994 167.104L154.994 167.104C156.486 166.103 156.483 164.485 154.987 163.489Z" fill="#9993DD"/>
<path d="M178.707 179.401L163.356 169.185C161.86 168.19 159.437 168.194 157.945 169.195L157.945 169.195C156.452 170.195 156.455 171.813 157.951 172.809L173.302 183.024C174.798 184.02 177.221 184.016 178.713 183.015C180.206 182.015 180.203 180.396 178.707 179.401Z" fill="#9993DD"/>
<path d="M187.647 185.35L209.932 200.18C211.428 201.175 211.43 202.794 209.938 203.794L209.938 203.794C208.445 204.795 206.023 204.799 204.527 203.803L182.242 188.974C180.746 187.978 180.743 186.36 182.236 185.359C183.728 184.359 186.151 184.355 187.647 185.35Z" fill="#9993DD"/>
<path d="M199.276 145.118L183.924 134.902C182.428 133.907 180.006 133.911 178.513 134.911L178.513 134.911C177.021 135.912 177.024 137.53 178.52 138.526L193.871 148.741C195.367 149.737 197.789 149.733 199.282 148.732C200.774 147.731 200.772 146.113 199.276 145.118Z" fill="#BBD1FD"/>
</g>
<path d="M361.284 210.903C361.034 210.736 360.606 210.737 360.356 210.905L360.27 210.962L350.446 220.157C350.197 220.391 350.233 220.712 350.533 220.911L359.869 227.124C360.091 227.272 360.448 227.3 360.712 227.17L374.578 220.484C374.716 220.415 374.808 220.313 374.833 220.199C374.859 220.085 374.815 219.969 374.713 219.877C374.698 219.858 374.67 219.839 374.641 219.82L361.284 210.903ZM360.947 222.072L357.971 220.092L361.359 216.74L365.866 219.74L360.947 222.072Z" fill="#A6B6D9"/>
<g filter="url(#filter2_d_32_1824)">
<path d="M409.07 116.049L301.611 44.5389C299.024 42.8172 294.833 42.8244 292.252 44.555L262.16 64.7296C259.578 66.4602 259.583 69.2589 262.171 70.9807L369.63 142.49C372.217 144.212 376.407 144.205 378.989 142.474L409.081 122.3C411.662 120.569 411.657 117.77 409.07 116.049Z" fill="url(#paint3_linear_32_1824)" stroke="#DBE2F0" stroke-width="1.00035"/>
<path d="M368.95 98.484L325.391 69.4974C323.793 68.4343 321.206 68.4388 319.612 69.5073C318.018 70.5759 318.021 72.3039 319.619 73.367L363.178 102.354C364.775 103.417 367.362 103.412 368.956 102.344C370.55 101.275 370.547 99.5471 368.95 98.484Z" fill="#9993DD"/>
<path d="M351.633 100.542L324.681 82.6063C323.083 81.5432 320.496 81.5476 318.902 82.6162C317.308 83.6848 317.311 85.4128 318.909 86.4759L345.861 104.412C347.459 105.475 350.046 105.47 351.64 104.402C353.234 103.333 353.231 101.605 351.633 100.542Z" fill="#9993DD"/>
<path d="M355.719 115.978L326.113 96.2764C324.515 95.2134 321.928 95.2178 320.334 96.2864C318.74 97.3549 318.743 99.083 320.341 100.146L349.947 119.848C351.545 120.911 354.132 120.907 355.726 119.838C357.32 118.769 357.317 117.041 355.719 115.978Z" fill="#9993DD"/>
<path d="M387.025 124.093L360.141 106.203C358.543 105.14 355.956 105.145 354.362 106.213C352.769 107.282 352.772 109.01 354.369 110.073L381.253 127.963C382.851 129.026 385.438 129.022 387.032 127.953C388.625 126.885 388.622 125.156 387.025 124.093Z" fill="#9993DD"/>
<path d="M307.819 84.0845L305.375 82.4581C303.778 81.395 301.19 81.3994 299.597 82.468C298.003 83.5366 298.006 85.2646 299.603 86.3277L302.047 87.9541C303.645 89.0172 306.232 89.0127 307.826 87.9442C309.42 86.8756 309.417 85.1475 307.819 84.0845Z" fill="#9993DD"/>
<path d="M317.922 90.9626L315.478 89.3363C313.881 88.2732 311.294 88.2776 309.7 89.3462C308.106 90.4147 308.109 92.1428 309.707 93.2059L312.151 94.8322C313.748 95.8953 316.335 95.8909 317.929 94.8223C319.523 93.7538 319.52 92.0257 317.922 90.9626Z" fill="#9993DD"/>
<path d="M316.476 77.1462L314.881 76.0848C313.284 75.0217 310.697 75.0262 309.103 76.0947C307.509 77.1633 307.512 78.8913 309.11 79.9544L310.705 81.0158C312.302 82.0789 314.889 82.0744 316.483 81.0059C318.077 79.9373 318.074 78.2093 316.476 77.1462Z" fill="#9993DD"/>
<path d="M294.232 61.4285L297.756 63.7738L297.748 59.0712L294.232 61.4285ZM294.221 55.4433L299.348 58.8546L299.357 63.9848L291.684 69.1282C291.345 69.3555 290.886 69.4837 290.405 69.4845C289.925 69.4853 289.464 69.3587 289.125 69.1325L281.435 64.0155C281.095 63.7893 280.904 63.4821 280.903 63.1614C280.903 62.8407 281.093 62.5329 281.432 62.3055L291.661 55.4477C292.371 54.9719 293.51 54.97 294.221 55.4433ZM289.759 66.1389L291.038 65.2816L285.271 61.4439L283.993 62.3011L289.759 66.1389ZM294.239 65.7036L295.518 64.8464L287.828 59.7294L286.55 60.5866L294.239 65.7036Z" fill="#DBE2F0"/>
<path d="M288.876 82.0691L317.914 62.4729" stroke="white" stroke-opacity="0.2" stroke-linecap="round"/>
</g>
<path d="M247.827 66.2278L249.667 63.801C249.692 63.7839 249.709 63.7611 249.726 63.7384L253.431 58.8564C253.521 58.7288 253.551 58.5859 253.516 58.4469C253.481 58.3079 253.382 58.1795 253.235 58.0791C252.928 57.8752 252.444 57.8364 252.07 57.9619L245.131 60.3407L239.746 56.757L243.273 52.1079C243.367 51.9817 243.4 51.8392 243.368 51.7001C243.336 51.5609 243.24 51.4319 243.093 51.3306C242.779 51.1211 242.294 51.0822 241.92 51.2078L234.617 53.7064L234.608 53.7121L230.914 54.9729C230.353 55.1667 230.039 55.5703 230.15 55.9844L232.299 65.0227C232.342 65.1873 232.529 65.3118 232.784 65.3341L246.315 66.7412C246.936 66.8139 247.539 66.6029 247.827 66.2278ZM238.353 56.9069L233.825 62.8632L235.29 54.8688L238.353 56.9069ZM235.995 64.3182L244.539 61.3975L244.904 61.2663L247.975 63.3101L237.142 64.2198L235.995 64.3182ZM252.233 58.7619L249.053 62.9506L245.973 60.9011L252.233 58.7619ZM244.062 60.7058L237.862 62.8279L234.167 64.0886L239.195 57.4674L244.062 60.7058ZM242.075 52.0022L238.895 56.1909L235.824 54.1471L242.075 52.0022ZM231.264 55.8634C231.246 55.7726 231.315 55.6817 231.433 55.6474L234.168 54.7118L232.796 62.2463L231.264 55.8634ZM246.492 65.9973L236.939 65.0034L236.982 64.9977L248.206 64.0532L246.815 65.8833C246.764 65.9628 246.628 66.0085 246.492 65.9973Z" fill="#A6B6D9"/>
<g filter="url(#filter3_dd_32_1824)">
<path d="M363.489 148.012L256.03 76.5023C253.443 74.7805 249.253 74.7877 246.671 76.5184L216.579 96.6929C213.998 98.4236 214.002 101.222 216.59 102.944L324.049 174.454C326.636 176.176 330.826 176.168 333.408 174.438L363.5 154.263C366.081 152.532 366.077 149.734 363.489 148.012Z" fill="url(#paint4_linear_32_1824)" stroke="#DBE2F0" stroke-width="1.00035"/>
<path d="M323.368 130.448L290.386 108.5C288.789 107.437 286.201 107.441 284.608 108.51C283.014 109.578 283.017 111.306 284.614 112.369L317.596 134.317C319.193 135.38 321.78 135.376 323.374 134.307C324.968 133.239 324.965 131.511 323.368 130.448Z" fill="#9993DD"/>
<path d="M281.573 102.634L279.81 101.461C278.212 100.397 275.625 100.402 274.031 101.47C272.438 102.539 272.441 104.267 274.038 105.33L275.801 106.503C277.399 107.566 279.986 107.562 281.58 106.493C283.173 105.425 283.17 103.697 281.573 102.634Z" fill="#9993DD"/>
<path d="M306.053 132.505L289.378 121.409C287.78 120.346 285.193 120.35 283.599 121.419L283.599 121.419C282.005 122.487 282.008 124.215 283.606 125.278L300.281 136.375C301.878 137.438 304.465 137.433 306.059 136.365C307.653 135.296 307.65 133.568 306.053 132.505Z" fill="#9993DD"/>
<path d="M320.829 155.039L279.871 127.783C278.274 126.72 275.687 126.724 274.093 127.793C272.499 128.861 272.502 130.589 274.099 131.652L315.057 158.908C316.655 159.971 319.242 159.967 320.836 158.898C322.43 157.83 322.427 156.102 320.829 155.039Z" fill="#9993DD"/>
<path d="M316.299 139.324L314.56 138.167C312.963 137.104 310.376 137.108 308.782 138.177C307.188 139.246 307.191 140.974 308.788 142.037L310.527 143.194C312.125 144.257 314.712 144.253 316.306 143.184C317.9 142.115 317.897 140.387 316.299 139.324Z" fill="#9993DD"/>
<path d="M332.604 150.174L324.877 145.032C323.28 143.969 320.693 143.974 319.099 145.042L319.099 145.042C317.505 146.111 317.508 147.839 319.106 148.902L326.832 154.044C328.43 155.107 331.017 155.102 332.611 154.034C334.204 152.965 334.201 151.237 332.604 150.174Z" fill="#9993DD"/>
<path d="M271.364 122.121L259.793 114.421C258.196 113.358 255.609 113.363 254.015 114.431L254.015 114.431C252.421 115.5 252.424 117.228 254.021 118.291L265.592 125.991C267.189 127.054 269.776 127.049 271.37 125.981C272.964 124.912 272.961 123.184 271.364 122.121Z" fill="#9993DD"/>
<path d="M280.87 115.748L269.3 108.048C267.702 106.985 265.115 106.99 263.521 108.058C261.927 109.127 261.93 110.855 263.528 111.918L275.098 119.618C276.696 120.681 279.283 120.676 280.877 119.608C282.47 118.539 282.467 116.811 280.87 115.748Z" fill="#9993DD"/>
<path d="M248.014 93.2722L251.539 95.6176L251.531 90.9148L248.014 93.2722ZM248.004 87.2871L253.131 90.6988L253.14 95.8283L245.467 100.972C245.128 101.199 244.669 101.328 244.188 101.328C243.708 101.329 243.247 101.202 242.907 100.977L235.218 95.8591C234.878 95.6333 234.687 95.3258 234.686 95.0055C234.686 94.6845 234.876 94.3762 235.215 94.149L245.444 87.2914C246.154 86.8157 247.293 86.8137 248.004 87.2871ZM243.543 97.9824L244.821 97.1251L239.054 93.2879L237.776 94.1452L243.543 97.9824ZM248.022 97.5474L249.301 96.6901L241.611 91.5733L240.333 92.4306L248.022 97.5474Z" fill="#DBE2F0"/>
<path d="M243.183 113.673L272.222 94.0776" stroke="white" stroke-opacity="0.2" stroke-linecap="round"/>
</g>
<g filter="url(#filter4_dd_32_1824)">
<path d="M251.098 269.928L143.639 198.418C141.052 196.696 136.862 196.703 134.28 198.434L104.188 218.608C101.607 220.339 101.612 223.138 104.199 224.86L211.658 296.369C214.245 298.091 218.436 298.084 221.017 296.353L251.109 276.179C253.691 274.448 253.686 271.649 251.098 269.928Z" fill="white" fill-opacity="0.17" stroke="#DBE2F0" stroke-width="1.00035"/>
<path d="M208.614 250.791L177.995 230.415C176.398 229.352 173.81 229.356 172.217 230.425L172.217 230.425C170.623 231.493 170.626 233.221 172.223 234.284L202.843 254.66C204.44 255.723 207.027 255.719 208.621 254.65C210.215 253.582 210.212 251.854 208.614 250.791Z" fill="#9993DD"/>
<path d="M216.762 256.213L235.767 268.86C237.365 269.923 237.367 271.651 235.774 272.72C234.18 273.788 231.593 273.793 229.995 272.73L210.99 260.082C209.392 259.019 209.389 257.291 210.983 256.223C212.577 255.154 215.164 255.15 216.762 256.213Z" fill="#9993DD"/>
<path d="M169.182 224.549L167.419 223.376C165.821 222.313 163.234 222.318 161.64 223.386C160.047 224.455 160.05 226.183 161.647 227.246L163.41 228.419C165.008 229.482 167.595 229.478 169.189 228.409C170.782 227.341 170.779 225.613 169.182 224.549Z" fill="#9993DD"/>
<path d="M193.662 254.421L176.987 243.325C175.389 242.261 172.802 242.266 171.208 243.334C169.614 244.403 169.617 246.131 171.215 247.194L187.89 258.291C189.487 259.354 192.074 259.349 193.668 258.281C195.262 257.212 195.259 255.484 193.662 254.421Z" fill="#9993DD"/>
<path d="M208.438 276.953L171.699 252.505C170.102 251.442 167.515 251.446 165.921 252.515C164.327 253.583 164.33 255.311 165.927 256.375L202.667 280.823C204.264 281.886 206.851 281.882 208.445 280.813C210.039 279.745 210.036 278.017 208.438 276.953Z" fill="#9993DD"/>
<path d="M157.86 243.296L161.695 245.848C163.293 246.911 163.296 248.639 161.702 249.708L161.702 249.708C160.108 250.776 157.521 250.781 155.923 249.717L152.088 247.165C150.491 246.102 150.488 244.374 152.081 243.305L152.082 243.305C153.675 242.237 156.262 242.232 157.86 243.296Z" fill="#9993DD"/>
<path d="M220.213 272.09L202.044 259.999C200.447 258.936 197.86 258.94 196.266 260.009C194.672 261.077 194.675 262.805 196.272 263.868L214.442 275.959C216.039 277.022 218.626 277.018 220.22 275.949C221.814 274.881 221.811 273.153 220.213 272.09Z" fill="#9993DD"/>
<path d="M149.306 237.604L147.402 236.337C145.805 235.274 143.218 235.278 141.624 236.347L141.624 236.347C140.03 237.415 140.033 239.144 141.63 240.207L143.535 241.474C145.132 242.537 147.719 242.532 149.313 241.464L149.313 241.464C150.907 240.395 150.904 238.667 149.306 237.604Z" fill="#9993DD"/>
<path d="M168.48 237.663L156.91 229.963C155.312 228.9 152.725 228.905 151.131 229.973L151.131 229.973C149.537 231.042 149.54 232.77 151.138 233.833L162.708 241.532C164.306 242.595 166.893 242.591 168.487 241.522C170.081 240.454 170.078 238.726 168.48 237.663Z" fill="#9993DD"/>
<mask id="mask0_32_1824" style="mask-type:luminance" maskUnits="userSpaceOnUse" x="117" y="205" width="32" height="22">
<path d="M148.426 216.021L133.047 205.787L117.704 216.073L133.083 226.307L148.426 216.021Z" fill="white"/>
</mask>
<g mask="url(#mask0_32_1824)">
<path d="M135.624 215.188L139.148 217.533L139.14 212.83L135.624 215.188ZM135.613 209.202L140.74 212.614L140.749 217.744L133.077 222.887C132.738 223.114 132.278 223.243 131.798 223.243C131.317 223.245 130.857 223.118 130.517 222.892L122.827 217.775C122.488 217.548 122.296 217.241 122.296 216.92C122.295 216.6 122.485 216.292 122.825 216.065L133.053 209.207C133.763 208.731 134.902 208.729 135.613 209.202ZM131.152 219.898L132.43 219.041L126.663 215.203L125.385 216.06L131.152 219.898ZM135.631 219.463L136.91 218.606L129.221 213.489L127.942 214.346L135.631 219.463Z" fill="#DBE2F0"/>
</g>
<path d="M130.792 235.589L159.831 215.993" stroke="white" stroke-opacity="0.2" stroke-linecap="round"/>
</g>
<path d="M349.317 164.093L358.246 170.141C359.769 171.173 361.768 171.173 363.292 170.142L384.899 155.52M384.899 155.52L400.569 144.587C403.164 142.775 403.129 138.921 400.501 137.158L393.488 132.454M384.899 155.52L394.284 161.936C396.927 163.744 396.891 167.655 394.215 169.412L352.588 196.753M352.588 196.753L392.159 223.29M352.588 196.753L321.661 217.392C319.028 219.149 318.984 223.004 321.577 224.821L355.781 248.791" stroke="#5E6E8C" stroke-dasharray="5 5"/>
<path d="M221.352 191.038L230.373 197.379C232.994 199.221 232.906 203.134 230.204 204.856L224.5 208.492C221.816 210.203 221.707 214.083 224.292 215.941L250.725 234.945C252.246 236.038 254.286 236.075 255.846 235.037L272.272 224.106M272.272 224.106L287.051 214.074C289.731 212.255 289.671 208.288 286.937 206.552L276.975 200.223M272.272 224.106L287.172 234.071C289.825 235.845 289.839 239.741 287.2 241.534L249.164 267.381" stroke="#5E6E8C" stroke-dasharray="5 5"/>
<path d="M250.545 124.901L214.398 149.035" stroke="#5E6E8C" stroke-dasharray="5 5"/>
<path d="M142.025 126.215C140.908 125.472 139.582 124.883 138.123 124.481C136.664 124.081 135.101 123.875 133.523 123.878C130.336 123.884 127.28 124.735 125.029 126.244C121.277 128.76 120.536 132.518 122.785 135.523C123.142 135.851 123.541 135.765 123.77 135.611L125.205 134.65C122.339 133.424 123.484 131.985 123.484 131.985C124.077 131.065 123.787 130.52 123.787 130.52C123.539 129.652 124.356 130.219 124.356 130.219C125.148 130.825 124.783 131.671 124.783 131.671C124.233 133.028 125.866 133.604 126.555 133.79C127.183 133.472 127.777 133.369 128.228 133.385C126.552 131.986 125.299 130.177 128.533 128.009C129.476 127.377 130.554 127.086 131.71 127.05C131.837 126.851 132.422 126.061 134.036 125.604C134.036 125.604 134.979 125.926 135.51 127.742C136.368 128.064 137.193 128.488 137.917 128.969C138.64 129.451 139.278 130 139.763 130.573C142.483 130.92 142.969 131.549 142.969 131.549C142.291 132.628 141.11 133.022 140.812 133.108C140.763 133.88 140.331 134.601 139.389 135.233C136.146 137.407 133.443 136.56 131.333 135.44C131.376 135.82 131.139 136.354 130.35 136.883L128.024 138.443C127.795 138.596 127.66 138.869 128.17 139.107C132.685 140.592 138.292 140.082 142.044 137.567C143.159 136.82 144.043 135.933 144.645 134.958C145.247 133.984 145.556 132.939 145.554 131.885C145.553 130.831 145.24 129.787 144.634 128.814C144.029 127.842 143.142 126.958 142.025 126.215Z" fill="#A6B6D9"/>
<defs>
<filter id="filter0_dd_32_1824" x="316.931" y="188.495" width="203.809" height="154.04" filterUnits="userSpaceOnUse" color-interpolation-filters="sRGB">
<feFlood flood-opacity="0" result="BackgroundImageFix"/>
<feColorMatrix in="SourceAlpha" type="matrix" values="0 0 0 0 0 0 0 0 0 0 0 0 0 0 0 0 0 0 127 0" result="hardAlpha"/>
<feOffset/>
<feGaussianBlur stdDeviation="10.5"/>
<feComposite in2="hardAlpha" operator="out"/>
<feColorMatrix type="matrix" values="0 0 0 0 0.631373 0 0 0 0 0.0705882 0 0 0 0 1 0 0 0 0.16 0"/>
<feBlend mode="normal" in2="BackgroundImageFix" result="effect1_dropShadow_32_1824"/>
<feColorMatrix in="SourceAlpha" type="matrix" values="0 0 0 0 0 0 0 0 0 0 0 0 0 0 0 0 0 0 127 0" result="hardAlpha"/>
<feOffset dx="4" dy="10"/>
<feGaussianBlur stdDeviation="7.5"/>
<feComposite in2="hardAlpha" operator="out"/>
<feColorMatrix type="matrix" values="0 0 0 0 0 0 0 0 0 0 0 0 0 0 0 0 0 0 0.25 0"/>
<feBlend mode="normal" in2="effect1_dropShadow_32_1824" result="effect2_dropShadow_32_1824"/>
<feBlend mode="normal" in="SourceGraphic" in2="effect2_dropShadow_32_1824" result="shape"/>
</filter>
<filter id="filter1_dd_32_1824" x="104.301" y="102.24" width="206.626" height="155.839" filterUnits="userSpaceOnUse" color-interpolation-filters="sRGB">
<feFlood flood-opacity="0" result="BackgroundImageFix"/>
<feColorMatrix in="SourceAlpha" type="matrix" values="0 0 0 0 0 0 0 0 0 0 0 0 0 0 0 0 0 0 127 0" result="hardAlpha"/>
<feOffset/>
<feGaussianBlur stdDeviation="10.5"/>
<feComposite in2="hardAlpha" operator="out"/>
<feColorMatrix type="matrix" values="0 0 0 0 0.631373 0 0 0 0 0.0705882 0 0 0 0 1 0 0 0 0.16 0"/>
<feBlend mode="normal" in2="BackgroundImageFix" result="effect1_dropShadow_32_1824"/>
<feColorMatrix in="SourceAlpha" type="matrix" values="0 0 0 0 0 0 0 0 0 0 0 0 0 0 0 0 0 0 127 0" result="hardAlpha"/>
<feOffset dx="4" dy="10"/>
<feGaussianBlur stdDeviation="7.5"/>
<feComposite in2="hardAlpha" operator="out"/>
<feColorMatrix type="matrix" values="0 0 0 0 0 0 0 0 0 0 0 0 0 0 0 0 0 0 0.25 0"/>
<feBlend mode="normal" in2="effect1_dropShadow_32_1824" result="effect2_dropShadow_32_1824"/>
<feBlend mode="normal" in="SourceGraphic" in2="effect2_dropShadow_32_1824" result="shape"/>
</filter>
<filter id="filter2_d_32_1824" x="248.639" y="37.8594" width="181.963" height="131.311" filterUnits="userSpaceOnUse" color-interpolation-filters="sRGB">
<feFlood flood-opacity="0" result="BackgroundImageFix"/>
<feColorMatrix in="SourceAlpha" type="matrix" values="0 0 0 0 0 0 0 0 0 0 0 0 0 0 0 0 0 0 127 0" result="hardAlpha"/>
<feOffset dx="4" dy="10"/>
<feGaussianBlur stdDeviation="7.5"/>
<feComposite in2="hardAlpha" operator="out"/>
<feColorMatrix type="matrix" values="0 0 0 0 0 0 0 0 0 0 0 0 0 0 0 0 0 0 0.25 0"/>
<feBlend mode="normal" in2="BackgroundImageFix" result="effect1_dropShadow_32_1824"/>
<feBlend mode="normal" in="SourceGraphic" in2="effect1_dropShadow_32_1824" result="shape"/>
</filter>
<filter id="filter3_dd_32_1824" x="193.058" y="53.8228" width="193.963" height="147.311" filterUnits="userSpaceOnUse" color-interpolation-filters="sRGB">
<feFlood flood-opacity="0" result="BackgroundImageFix"/>
<feColorMatrix in="SourceAlpha" type="matrix" values="0 0 0 0 0 0 0 0 0 0 0 0 0 0 0 0 0 0 127 0" result="hardAlpha"/>
<feOffset/>
<feGaussianBlur stdDeviation="10.5"/>
<feComposite in2="hardAlpha" operator="out"/>
<feColorMatrix type="matrix" values="0 0 0 0 0.631373 0 0 0 0 0.0705882 0 0 0 0 1 0 0 0 0.16 0"/>
<feBlend mode="normal" in2="BackgroundImageFix" result="effect1_dropShadow_32_1824"/>
<feColorMatrix in="SourceAlpha" type="matrix" values="0 0 0 0 0 0 0 0 0 0 0 0 0 0 0 0 0 0 127 0" result="hardAlpha"/>
<feOffset dx="4" dy="10"/>
<feGaussianBlur stdDeviation="7.5"/>
<feComposite in2="hardAlpha" operator="out"/>
<feColorMatrix type="matrix" values="0 0 0 0 0 0 0 0 0 0 0 0 0 0 0 0 0 0 0.25 0"/>
<feBlend mode="normal" in2="effect1_dropShadow_32_1824" result="effect2_dropShadow_32_1824"/>
<feBlend mode="normal" in="SourceGraphic" in2="effect2_dropShadow_32_1824" result="shape"/>
</filter>
<filter id="filter4_dd_32_1824" x="80.6671" y="175.738" width="193.963" height="147.311" filterUnits="userSpaceOnUse" color-interpolation-filters="sRGB">
<feFlood flood-opacity="0" result="BackgroundImageFix"/>
<feColorMatrix in="SourceAlpha" type="matrix" values="0 0 0 0 0 0 0 0 0 0 0 0 0 0 0 0 0 0 127 0" result="hardAlpha"/>
<feOffset/>
<feGaussianBlur stdDeviation="10.5"/>
<feComposite in2="hardAlpha" operator="out"/>
<feColorMatrix type="matrix" values="0 0 0 0 0.631373 0 0 0 0 0.0705882 0 0 0 0 1 0 0 0 0.16 0"/>
<feBlend mode="normal" in2="BackgroundImageFix" result="effect1_dropShadow_32_1824"/>
<feColorMatrix in="SourceAlpha" type="matrix" values="0 0 0 0 0 0 0 0 0 0 0 0 0 0 0 0 0 0 127 0" result="hardAlpha"/>
<feOffset dx="4" dy="10"/>
<feGaussianBlur stdDeviation="7.5"/>
<feComposite in2="hardAlpha" operator="out"/>
<feColorMatrix type="matrix" values="0 0 0 0 0 0 0 0 0 0 0 0 0 0 0 0 0 0 0.25 0"/>
<feBlend mode="normal" in2="effect1_dropShadow_32_1824" result="effect2_dropShadow_32_1824"/>
<feBlend mode="normal" in="SourceGraphic" in2="effect2_dropShadow_32_1824" result="shape"/>
</filter>
<radialGradient id="paint0_radial_32_1824" cx="0" cy="0" r="1" gradientUnits="userSpaceOnUse" gradientTransform="translate(310.403 215.039) rotate(-174.504) scale(219.271 128.459)">
<stop stopColor="#DBE2F0" stop-opacity="0.2"/>
<stop offset="1" stopColor="#F5F7FB" stop-opacity="0"/>
</radialGradient>
<linearGradient id="paint1_linear_32_1824" x1="457.045" y1="238.315" x2="410.388" y2="308.428" gradientUnits="userSpaceOnUse">
<stop stopColor="white" stop-opacity="0.17"/>
<stop offset="1" stopColor="white" stop-opacity="0.1"/>
</linearGradient>
<linearGradient id="paint2_linear_32_1824" x1="238.222" y1="158.056" x2="200.932" y2="214.092" gradientUnits="userSpaceOnUse">
<stop stopColor="white" stop-opacity="0.17"/>
<stop offset="1" stopColor="white" stop-opacity="0.1"/>
</linearGradient>
<linearGradient id="paint3_linear_32_1824" x1="355.999" y1="80.2691" x2="331.314" y2="117.363" gradientUnits="userSpaceOnUse">
<stop stopColor="white" stop-opacity="0.17"/>
<stop offset="1" stopColor="white" stop-opacity="0.1"/>
</linearGradient>
<linearGradient id="paint4_linear_32_1824" x1="310.418" y1="112.233" x2="285.733" y2="149.326" gradientUnits="userSpaceOnUse">
<stop stopColor="white" stop-opacity="0.17"/>
<stop offset="1" stopColor="white" stop-opacity="0.1"/>
</linearGradient>
</defs>
</svg>
